<svg width="400" height="120" viewBox="0 0 400 120" xmlns="http://www.w3.org/2000/svg">
  <!-- Background -->
  <rect width="400" height="120" fill="#f8f9fa" rx="8"/>
  
  <!-- SWARM text with pixelated/block style -->
  <g id="swarm-text">
    <!-- S -->
    <rect x="20" y="30" width="12" height="12" fill="#666666"/>
    <rect x="32" y="30" width="12" height="12" fill="#666666"/>
    <rect x="44" y="30" width="12" height="12" fill="#666666"/>
    <rect x="20" y="42" width="12" height="12" fill="#666666"/>
    <rect x="20" y="54" width="12" height="12" fill="#666666"/>
    <rect x="32" y="54" width="12" height="12" fill="#666666"/>
    <rect x="44" y="54" width="12" height="12" fill="#666666"/>
    <rect x="44" y="66" width="12" height="12" fill="#666666"/>
    <rect x="20" y="78" width="12" height="12" fill="#666666"/>
    <rect x="32" y="78" width="12" height="12" fill="#666666"/>
    <rect x="44" y="78" width="12" height="12" fill="#666666"/>
    
    <!-- W -->
    <rect x="70" y="30" width="12" height="12" fill="#666666"/>
    <rect x="82" y="42" width="12" height="12" fill="#666666"/>
    <rect x="94" y="54" width="12" height="12" fill="#666666"/>
    <rect x="106" y="42" width="12" height="12" fill="#666666"/>
    <rect x="118" y="30" width="12" height="12" fill="#666666"/>
    <rect x="70" y="42" width="12" height="12" fill="#666666"/>
    <rect x="70" y="54" width="12" height="12" fill="#666666"/>
    <rect x="70" y="66" width="12" height="12" fill="#666666"/>
    <rect x="70" y="78" width="12" height="12" fill="#666666"/>
    <rect x="118" y="42" width="12" height="12" fill="#666666"/>
    <rect x="118" y="54" width="12" height="12" fill="#666666"/>
    <rect x="118" y="66" width="12" height="12" fill="#666666"/>
    <rect x="118" y="78" width="12" height="12" fill="#666666"/>
    
    <!-- A -->
    <rect x="144" y="30" width="12" height="12" fill="#666666"/>
    <rect x="156" y="42" width="12" height="12" fill="#666666"/>
    <rect x="168" y="54" width="12" height="12" fill="#666666"/>
    <rect x="180" y="42" width="12" height="12" fill="#666666"/>
    <rect x="192" y="30" width="12" height="12" fill="#666666"/>
    <rect x="144" y="42" width="12" height="12" fill="#666666"/>
    <rect x="192" y="42" width="12" height="12" fill="#666666"/>
    <rect x="144" y="54" width="12" height="12" fill="#666666"/>
    <rect x="192" y="54" width="12" height="12" fill="#666666"/>
    <rect x="144" y="66" width="12" height="12" fill="#666666"/>
    <rect x="156" y="66" width="12" height="12" fill="#666666"/>
    <rect x="168" y="66" width="12" height="12" fill="#666666"/>
    <rect x="180" y="66" width="12" height="12" fill="#666666"/>
    <rect x="192" y="66" width="12" height="12" fill="#666666"/>
    <rect x="144" y="78" width="12" height="12" fill="#666666"/>
    <rect x="192" y="78" width="12" height="12" fill="#666666"/>
    
    <!-- R -->
    <rect x="218" y="30" width="12" height="12" fill="#666666"/>
    <rect x="230" y="30" width="12" height="12" fill="#666666"/>
    <rect x="242" y="30" width="12" height="12" fill="#666666"/>
    <rect x="218" y="42" width="12" height="12" fill="#666666"/>
    <rect x="218" y="54" width="12" height="12" fill="#666666"/>
    <rect x="230" y="54" width="12" height="12" fill="#666666"/>
    <rect x="242" y="54" width="12" height="12" fill="#666666"/>
    <rect x="218" y="66" width="12" height="12" fill="#666666"/>
    <rect x="218" y="78" width="12" height="12" fill="#666666"/>
    <rect x="230" y="66" width="12" height="12" fill="#666666"/>
    <rect x="242" y="78" width="12" height="12" fill="#666666"/>
    
    <!-- M -->
    <rect x="268" y="30" width="12" height="12" fill="#666666"/>
    <rect x="268" y="42" width="12" height="12" fill="#666666"/>
    <rect x="280" y="54" width="12" height="12" fill="#666666"/>
    <rect x="292" y="42" width="12" height="12" fill="#666666"/>
    <rect x="304" y="30" width="12" height="12" fill="#666666"/>
    <rect x="304" y="42" width="12" height="12" fill="#666666"/>
    <rect x="268" y="54" width="12" height="12" fill="#666666"/>
    <rect x="304" y="54" width="12" height="12" fill="#666666"/>
    <rect x="268" y="66" width="12" height="12" fill="#666666"/>
    <rect x="304" y="66" width="12" height="12" fill="#666666"/>
    <rect x="268" y="78" width="12" height="12" fill="#666666"/>
    <rect x="304" y="78" width="12" height="12" fill="#666666"/>
  </g>
  
  <!-- Purple square decorations -->
  <rect x="15" y="25" width="8" height="8" fill="#8B5CF6"/>
  <rect x="50" y="35" width="6" height="6" fill="#8B5CF6"/>
  <rect x="85" y="25" width="8" height="8" fill="#8B5CF6"/>
  <rect x="140" y="25" width="8" height="8" fill="#8B5CF6"/>
  <rect x="195" y="35" width="6" height="6" fill="#8B5CF6"/>
  <rect x="235" y="25" width="8" height="8" fill="#8B5CF6"/>
  <rect x="285" y="35" width="6" height="6" fill="#8B5CF6"/>
  
  <!-- Technologies text in purple -->
  <text x="200" y="105" font-family="Arial, sans-serif" font-size="18" font-weight="500" fill="#8B5CF6" text-anchor="middle">Technologies</text>
</svg>